<svg xmlns="http://www.w3.org/2000/svg" viewBox="0 0 64 64" fill="none">
  <rect width="64" height="64" rx="16" fill="#0F172A"/>
  <rect x="16" y="13" width="10" height="38" rx="5" fill="#FACC15"/>
  <path
    d="M26 13H33.5C44 13 51 20.4 51 32C51 43.6 44 51 33.5 51H26V42H33.5C38.6 42 42 37.9 42 32C42 26.1 38.6 22 33.5 22H26V13Z"
    fill="#FACC15"
  />
  <path
    d="M20 23C23.8 18.9 30.1 16.5 36.7 16.5C40.9 16.5 45.2 17.5 48.6 19.8"
    stroke="#67E8F9"
    stroke-width="3.4"
    stroke-linecap="round"
  />
  <circle cx="22" cy="44" r="2.6" fill="#F8FAFC"/>
  <circle cx="42" cy="44" r="2.6" fill="#F8FAFC"/>
</svg>
